<?xml version="1.0" encoding="utf-8"?>
<!-- Generator: Adobe Illustrator 21.0.0, SVG Export Plug-In . SVG Version: 6.00 Build 0)  -->
<svg version="1.1" id="Layer_1" xmlns="http://www.w3.org/2000/svg" xmlns:xlink="http://www.w3.org/1999/xlink" x="0px" y="0px"
	 viewBox="0 0 247 36" style="enable-background:new 0 0 247 36;" xml:space="preserve">
<style type="text/css">
	.st0{enable-background:new    ;}
	.st1{fill:#FFFFFF;}
	.st2{fill:#FF6E89;}
</style>
<g class="st0">
	<path class="st1" d="M10.3,25H4.8v9.3H0.1v-26h10.2c6,0,9.2,3.3,9.2,8.3C19.4,21.6,16.2,25,10.3,25z M10.1,12.5H4.8v8.4h5.3
		c3.1,0,4.6-1.7,4.6-4.2S13.2,12.5,10.1,12.5z"/>
</g>
<g class="st0">
	<path class="st1" d="M38.9,26.3l-4.3-9.8h-5.7v9.8h-4.8v-26H35c6.2,0,9,3.9,9,8.1c0,3.5-1.9,6.2-4.8,7.3L44,26.3H38.9z M35,4.5
		h-6.2v7.8h6.3c2.7,0,4.2-1.4,4.2-3.8C39.3,6.3,37.7,4.5,35,4.5z"/>
</g>
<g class="st0">
	<path class="st1" d="M65.5,34.3V23H54.8v11.3h-4.7v-26h4.7v10.1h10.7V8.3h4.7v26H65.5z"/>
</g>
<g class="st0">
	<path class="st1" d="M99.7,10.5v4h-1.8V3.8h4.2c1.2,0,2.1,0.3,2.8,0.9c0.7,0.6,1,1.4,1,2.4c0,1-0.3,1.8-1,2.4
		c-0.7,0.6-1.6,0.9-2.8,0.9H99.7z M99.7,9h2.4c0.7,0,1.2-0.2,1.5-0.5s0.5-0.8,0.5-1.3s-0.2-1-0.5-1.4s-0.8-0.5-1.5-0.5h-2.4V9z"/>
	<path class="st1" d="M109.1,7.6c0.3-0.4,0.6-0.7,1-0.9s0.8-0.3,1.3-0.3c0.8,0,1.5,0.3,2,0.8c0.5,0.5,0.7,1.3,0.7,2.5v4.8h-1.8V9.7
		c0-0.6-0.1-1.1-0.4-1.4s-0.6-0.4-1.1-0.4c-0.3,0-0.7,0.1-0.9,0.2c-0.3,0.1-0.5,0.3-0.7,0.6v5.8h-1.8V3.1h1.8V7.6z"/>
	<path class="st1" d="M118.5,11.3l0.2,0.8h0l1.7-5.5h1.9l-3.3,9.1c-0.2,0.6-0.5,1-0.9,1.4c-0.4,0.4-0.9,0.6-1.6,0.6
		c-0.1,0-0.3,0-0.5,0c-0.2,0-0.3-0.1-0.5-0.1l0.2-1.4c0.1,0,0.2,0,0.3,0s0.2,0,0.3,0c0.3,0,0.6-0.1,0.8-0.3c0.2-0.2,0.4-0.5,0.5-0.8
		l0.3-0.7l-2.9-7.8h1.9L118.5,11.3z"/>
	<path class="st1" d="M127.9,12.3c0-0.3-0.1-0.5-0.4-0.7s-0.7-0.3-1.3-0.5c-0.9-0.2-1.7-0.5-2.1-0.9c-0.5-0.4-0.7-0.9-0.7-1.5
		c0-0.7,0.3-1.2,0.8-1.7s1.3-0.7,2.2-0.7c1,0,1.7,0.2,2.3,0.7c0.6,0.5,0.8,1.1,0.8,1.8l0,0h-1.7c0-0.3-0.1-0.6-0.4-0.8
		c-0.2-0.2-0.6-0.4-1-0.4c-0.4,0-0.8,0.1-1,0.3c-0.2,0.2-0.3,0.4-0.3,0.7s0.1,0.5,0.3,0.7c0.2,0.2,0.6,0.3,1.3,0.4
		c1,0.2,1.7,0.5,2.2,0.9c0.5,0.4,0.7,0.9,0.7,1.5c0,0.7-0.3,1.3-0.9,1.7s-1.4,0.7-2.3,0.7c-1,0-1.8-0.3-2.4-0.8
		c-0.6-0.5-0.9-1.1-0.9-1.8l0,0h1.7c0,0.5,0.2,0.8,0.5,1s0.7,0.3,1.1,0.3c0.5,0,0.8-0.1,1.1-0.3S127.9,12.6,127.9,12.3z"/>
	<path class="st1" d="M133.2,4.6h-1.8V3.1h1.8V4.6z M133.2,14.5h-1.8V6.6h1.8V14.5z"/>
	<path class="st1" d="M138.4,13.2c0.4,0,0.8-0.1,1.1-0.4c0.3-0.3,0.4-0.6,0.4-1h1.6l0,0c0,0.7-0.3,1.4-0.9,1.9
		c-0.6,0.5-1.4,0.8-2.3,0.8c-1.2,0-2.1-0.4-2.7-1.1c-0.6-0.8-0.9-1.7-0.9-2.9v-0.3c0-1.1,0.3-2.1,0.9-2.9c0.6-0.8,1.5-1.1,2.7-1.1
		c1,0,1.7,0.3,2.3,0.8c0.6,0.6,0.9,1.3,0.9,2.1l0,0H140c0-0.4-0.1-0.8-0.4-1.1c-0.3-0.3-0.7-0.5-1.1-0.5c-0.7,0-1.1,0.2-1.4,0.7
		s-0.4,1.1-0.4,1.8v0.3c0,0.7,0.1,1.4,0.4,1.8S137.8,13.2,138.4,13.2z"/>
	<path class="st1" d="M144.9,4.6h-1.8V3.1h1.8V4.6z M144.9,14.5h-1.8V6.6h1.8V14.5z"/>
	<path class="st1" d="M151.7,14.5c-0.1-0.2-0.1-0.4-0.2-0.6c0-0.2-0.1-0.4-0.1-0.6c-0.2,0.4-0.6,0.7-1,0.9c-0.4,0.3-0.8,0.4-1.3,0.4
		c-0.8,0-1.5-0.2-1.9-0.6s-0.7-1-0.7-1.8c0-0.8,0.3-1.4,0.9-1.8c0.6-0.4,1.5-0.6,2.6-0.6h1.4V9.1c0-0.4-0.1-0.7-0.4-1
		s-0.6-0.4-1-0.4c-0.4,0-0.7,0.1-1,0.3c-0.2,0.2-0.4,0.4-0.4,0.8H147l0,0c0-0.6,0.2-1.2,0.8-1.7c0.6-0.5,1.4-0.7,2.3-0.7
		c0.9,0,1.7,0.2,2.2,0.7s0.8,1.1,0.8,2v3.5c0,0.3,0,0.6,0.1,0.9c0,0.3,0.1,0.6,0.2,0.9H151.7z M149.5,13.2c0.4,0,0.9-0.1,1.2-0.3
		c0.4-0.2,0.6-0.5,0.7-0.8v-1.2H150c-0.5,0-0.9,0.1-1.2,0.4c-0.3,0.3-0.4,0.6-0.4,0.9c0,0.3,0.1,0.5,0.3,0.7
		C148.9,13.1,149.1,13.2,149.5,13.2z"/>
	<path class="st1" d="M156.7,6.6l0.1,1.1c0.3-0.4,0.6-0.7,1-0.9c0.4-0.2,0.8-0.3,1.3-0.3c0.8,0,1.5,0.2,1.9,0.8
		c0.5,0.5,0.7,1.3,0.7,2.3v5H160v-5c0-0.6-0.1-1-0.4-1.3c-0.2-0.3-0.6-0.4-1.1-0.4c-0.3,0-0.7,0.1-0.9,0.2c-0.3,0.2-0.5,0.4-0.7,0.6
		v5.8h-1.8V6.6H156.7z"/>
	<path class="st1" d="M168,12.3c0-0.3-0.1-0.5-0.4-0.7s-0.7-0.3-1.3-0.5c-0.9-0.2-1.7-0.5-2.1-0.9c-0.5-0.4-0.7-0.9-0.7-1.5
		c0-0.7,0.3-1.2,0.8-1.7s1.3-0.7,2.2-0.7c1,0,1.7,0.2,2.3,0.7c0.6,0.5,0.8,1.1,0.8,1.8l0,0H168c0-0.3-0.1-0.6-0.4-0.8
		c-0.2-0.2-0.6-0.4-1-0.4c-0.4,0-0.8,0.1-1,0.3c-0.2,0.2-0.3,0.4-0.3,0.7s0.1,0.5,0.3,0.7c0.2,0.2,0.6,0.3,1.3,0.4
		c1,0.2,1.7,0.5,2.2,0.9c0.5,0.4,0.7,0.9,0.7,1.5c0,0.7-0.3,1.3-0.9,1.7s-1.4,0.7-2.3,0.7c-1,0-1.8-0.3-2.4-0.8s-0.9-1.1-0.8-1.8
		l0,0h1.7c0,0.5,0.2,0.8,0.5,1s0.7,0.3,1.1,0.3c0.5,0,0.8-0.1,1.1-0.3S168,12.6,168,12.3z"/>
	<path class="st1" d="M175.7,14.5V7.9h-1.2V6.6h1.2V5.6c0-0.9,0.2-1.5,0.7-2c0.5-0.5,1.1-0.7,2-0.7c0.2,0,0.3,0,0.5,0
		c0.2,0,0.4,0.1,0.6,0.1l-0.2,1.4c-0.1,0-0.2,0-0.3-0.1c-0.1,0-0.2,0-0.4,0c-0.4,0-0.7,0.1-0.9,0.3c-0.2,0.2-0.3,0.5-0.3,0.9v0.9
		h1.6v1.3h-1.6v6.6H175.7z"/>
	<path class="st1" d="M180.1,10.5c0-1.2,0.3-2.1,1-2.9c0.7-0.8,1.5-1.1,2.7-1.1c1.1,0,2,0.4,2.7,1.1c0.6,0.8,1,1.7,1,2.9v0.2
		c0,1.2-0.3,2.2-1,2.9c-0.6,0.7-1.5,1.1-2.7,1.1c-1.1,0-2-0.4-2.7-1.1c-0.6-0.8-1-1.7-1-2.9V10.5z M181.8,10.6
		c0,0.8,0.2,1.4,0.5,1.9c0.3,0.5,0.8,0.7,1.4,0.7c0.6,0,1.1-0.2,1.4-0.7c0.3-0.5,0.5-1.1,0.5-1.9v-0.2c0-0.8-0.2-1.4-0.5-1.9
		c-0.3-0.5-0.8-0.7-1.4-0.7c-0.6,0-1.1,0.2-1.4,0.7c-0.3,0.5-0.5,1.1-0.5,1.9V10.6z"/>
	<path class="st1" d="M192.8,8.2l-0.8,0c-0.3,0-0.6,0.1-0.9,0.2s-0.4,0.4-0.5,0.6v5.5h-1.8V6.6h1.6l0.1,1.1c0.2-0.4,0.5-0.7,0.8-1
		c0.3-0.2,0.7-0.3,1.1-0.3c0.1,0,0.2,0,0.3,0c0.1,0,0.2,0,0.3,0.1L192.8,8.2z"/>
</g>
<g class="st0">
	<path class="st1" d="M99.7,28.1v4.4h-1.8V21.8h3.9c1.2,0,2.1,0.3,2.8,0.8s1,1.3,1,2.3c0,0.6-0.1,1-0.4,1.4c-0.3,0.4-0.7,0.7-1.2,1
		c0.6,0.2,1,0.5,1.3,0.9c0.3,0.4,0.4,1,0.4,1.6v0.9c0,0.3,0,0.6,0.1,0.9s0.2,0.5,0.4,0.7v0.2h-1.8c-0.2-0.2-0.3-0.4-0.4-0.8
		s-0.1-0.7-0.1-1v-0.9c0-0.5-0.2-1-0.5-1.3s-0.7-0.5-1.3-0.5H99.7z M99.7,26.6h2.1c0.7,0,1.2-0.1,1.6-0.4s0.5-0.7,0.5-1.3
		c0-0.5-0.2-1-0.5-1.3c-0.3-0.3-0.8-0.5-1.5-0.5h-2.2V26.6z"/>
	<path class="st1" d="M111,32.6c-1.1,0-2-0.4-2.7-1.1c-0.7-0.7-1-1.7-1-2.8v-0.3c0-1.2,0.3-2.1,1-2.9c0.7-0.8,1.5-1.1,2.5-1.1
		c1.1,0,1.9,0.3,2.5,1c0.6,0.6,0.9,1.5,0.9,2.6v1h-4.9l0,0c0,0.6,0.2,1.1,0.6,1.5c0.3,0.4,0.8,0.6,1.4,0.6c0.5,0,0.9-0.1,1.2-0.2
		s0.7-0.3,1-0.5l0.6,1.2c-0.3,0.3-0.7,0.5-1.2,0.7C112.2,32.6,111.7,32.6,111,32.6z M110.8,25.9c-0.4,0-0.8,0.2-1.1,0.5
		c-0.3,0.3-0.5,0.8-0.5,1.3l0,0h3.1v-0.2c0-0.5-0.1-0.9-0.4-1.2C111.7,26,111.3,25.9,110.8,25.9z"/>
	<path class="st1" d="M122.5,28.8c0,1.2-0.3,2.1-0.8,2.8s-1.3,1.1-2.3,1.1c-0.4,0-0.8-0.1-1.2-0.2s-0.6-0.4-0.9-0.7v3.8h-1.8v-11
		h1.5l0.2,1c0.3-0.4,0.6-0.7,0.9-0.8c0.4-0.2,0.8-0.3,1.2-0.3c1,0,1.7,0.4,2.3,1.2c0.5,0.8,0.8,1.8,0.8,3.1V28.8z M120.7,28.6
		c0-0.8-0.2-1.5-0.5-2s-0.8-0.8-1.4-0.8c-0.4,0-0.7,0.1-0.9,0.2s-0.5,0.4-0.6,0.7v3.6c0.2,0.3,0.4,0.5,0.6,0.6
		c0.3,0.1,0.6,0.2,1,0.2c0.6,0,1.1-0.2,1.4-0.7c0.3-0.4,0.5-1,0.5-1.8V28.6z"/>
	<path class="st1" d="M128,26.2l-0.8,0c-0.3,0-0.6,0.1-0.9,0.2c-0.2,0.1-0.4,0.4-0.5,0.6v5.5h-1.8v-7.9h1.6l0.1,1.1
		c0.2-0.4,0.5-0.7,0.8-1c0.3-0.2,0.7-0.3,1.1-0.3c0.1,0,0.2,0,0.3,0c0.1,0,0.2,0,0.3,0.1L128,26.2z"/>
	<path class="st1" d="M128.9,28.5c0-1.2,0.3-2.1,1-2.9c0.7-0.8,1.5-1.1,2.7-1.1c1.1,0,2,0.4,2.7,1.1c0.6,0.8,1,1.7,1,2.9v0.2
		c0,1.2-0.3,2.2-1,2.9c-0.6,0.7-1.5,1.1-2.7,1.1c-1.1,0-2-0.4-2.7-1.1c-0.6-0.8-1-1.7-1-2.9V28.5z M130.7,28.6
		c0,0.8,0.2,1.4,0.5,1.9c0.3,0.5,0.8,0.7,1.4,0.7c0.6,0,1.1-0.2,1.4-0.7c0.3-0.5,0.5-1.1,0.5-1.9v-0.2c0-0.8-0.2-1.4-0.5-1.9
		c-0.3-0.5-0.8-0.7-1.4-0.7c-0.6,0-1.1,0.2-1.4,0.7c-0.3,0.5-0.5,1.1-0.5,1.9V28.6z"/>
	<path class="st1" d="M137.4,28.6c0-1.3,0.3-2.3,0.8-3.1c0.5-0.8,1.3-1.2,2.3-1.2c0.4,0,0.8,0.1,1.2,0.3c0.3,0.2,0.6,0.4,0.9,0.7
		v-4.4h1.8v11.4h-1.5l-0.2-1c-0.3,0.4-0.6,0.7-0.9,0.8c-0.4,0.2-0.8,0.3-1.2,0.3c-1,0-1.7-0.4-2.3-1.1c-0.5-0.7-0.8-1.6-0.8-2.8
		V28.6z M139.2,28.8c0,0.7,0.1,1.3,0.4,1.8c0.3,0.4,0.7,0.7,1.3,0.7c0.4,0,0.7-0.1,1-0.2c0.3-0.2,0.5-0.4,0.6-0.7v-3.5
		c-0.2-0.3-0.4-0.5-0.6-0.7c-0.3-0.2-0.6-0.2-0.9-0.2c-0.6,0-1.1,0.3-1.3,0.8c-0.3,0.5-0.4,1.2-0.4,2V28.8z"/>
	<path class="st1" d="M151.2,31.3c-0.2,0.4-0.6,0.7-0.9,1c-0.4,0.2-0.8,0.3-1.3,0.3c-0.8,0-1.5-0.3-2-0.8s-0.7-1.4-0.7-2.5v-4.7h1.8
		v4.8c0,0.7,0.1,1.2,0.3,1.5s0.6,0.4,1,0.4c0.4,0,0.8-0.1,1.1-0.2c0.3-0.2,0.5-0.4,0.7-0.7v-5.7h1.8v7.9h-1.6L151.2,31.3z"/>
	<path class="st1" d="M158,31.2c0.4,0,0.8-0.1,1.1-0.4c0.3-0.3,0.4-0.6,0.4-1h1.6l0,0c0,0.7-0.3,1.4-0.9,1.9
		c-0.6,0.5-1.4,0.8-2.3,0.8c-1.2,0-2.1-0.4-2.7-1.1c-0.6-0.8-0.9-1.7-0.9-2.9v-0.3c0-1.1,0.3-2.1,0.9-2.9c0.6-0.8,1.5-1.1,2.7-1.1
		c1,0,1.7,0.3,2.3,0.8c0.6,0.6,0.9,1.3,0.9,2.1l0,0h-1.6c0-0.4-0.1-0.8-0.4-1.1c-0.3-0.3-0.7-0.5-1.1-0.5c-0.7,0-1.1,0.2-1.4,0.7
		s-0.4,1.1-0.4,1.8v0.3c0,0.7,0.1,1.4,0.4,1.8S157.3,31.2,158,31.2z"/>
	<path class="st1" d="M164.8,22.6v1.9h1.4v1.3h-1.4v4.4c0,0.3,0.1,0.6,0.2,0.7c0.1,0.1,0.3,0.2,0.6,0.2c0.1,0,0.2,0,0.3,0
		c0.1,0,0.2,0,0.3-0.1l0.2,1.3c-0.2,0.1-0.3,0.1-0.5,0.2c-0.2,0-0.4,0.1-0.7,0.1c-0.7,0-1.2-0.2-1.5-0.6c-0.4-0.4-0.6-1-0.6-1.8
		v-4.4h-1.2v-1.3h1.2v-1.9H164.8z"/>
	<path class="st1" d="M169.7,22.6h-1.8v-1.6h1.8V22.6z M169.7,32.5h-1.8v-7.9h1.8V32.5z"/>
	<path class="st1" d="M174.5,29.8l0.1,0.6h0l0.1-0.6l1.6-5.2h1.8l-2.8,7.9h-1.5l-2.8-7.9h1.8L174.5,29.8z"/>
	<path class="st1" d="M182.6,32.6c-1.1,0-2-0.4-2.7-1.1c-0.7-0.7-1-1.7-1-2.8v-0.3c0-1.2,0.3-2.1,1-2.9c0.7-0.8,1.5-1.1,2.5-1.1
		c1.1,0,1.9,0.3,2.5,1c0.6,0.6,0.9,1.5,0.9,2.6v1h-4.9l0,0c0,0.6,0.2,1.1,0.6,1.5c0.3,0.4,0.8,0.6,1.4,0.6c0.5,0,0.9-0.1,1.2-0.2
		s0.7-0.3,1-0.5l0.6,1.2c-0.3,0.3-0.7,0.5-1.2,0.7C183.8,32.6,183.3,32.6,182.6,32.6z M182.4,25.9c-0.4,0-0.8,0.2-1.1,0.5
		c-0.3,0.3-0.5,0.8-0.5,1.3l0,0h3.1v-0.2c0-0.5-0.1-0.9-0.4-1.2C183.3,26,182.9,25.9,182.4,25.9z"/>
	<path class="st1" d="M199.4,32.5h-1.8v-4.5h-4.8v4.5h-1.8V21.8h1.8v4.7h4.8v-4.7h1.8V32.5z"/>
	<path class="st1" d="M205,32.6c-1.1,0-2-0.4-2.7-1.1c-0.7-0.7-1-1.7-1-2.8v-0.3c0-1.2,0.3-2.1,1-2.9c0.7-0.8,1.5-1.1,2.5-1.1
		c1.1,0,1.9,0.3,2.5,1c0.6,0.6,0.9,1.5,0.9,2.6v1h-4.9l0,0c0,0.6,0.2,1.1,0.6,1.5s0.8,0.6,1.4,0.6c0.5,0,0.9-0.1,1.2-0.2
		s0.7-0.3,1-0.5l0.6,1.2c-0.3,0.3-0.7,0.5-1.2,0.7C206.2,32.6,205.6,32.6,205,32.6z M204.7,25.9c-0.4,0-0.8,0.2-1.1,0.5
		c-0.3,0.3-0.5,0.8-0.5,1.3l0,0h3.1v-0.2c0-0.5-0.1-0.9-0.4-1.2S205.3,25.9,204.7,25.9z"/>
	<path class="st1" d="M214.3,32.5c-0.1-0.2-0.1-0.4-0.2-0.6c0-0.2-0.1-0.4-0.1-0.6c-0.2,0.4-0.6,0.7-1,0.9c-0.4,0.3-0.8,0.4-1.3,0.4
		c-0.8,0-1.5-0.2-1.9-0.6c-0.4-0.4-0.7-1-0.7-1.8c0-0.8,0.3-1.4,0.9-1.8c0.6-0.4,1.5-0.6,2.6-0.6h1.4v-0.7c0-0.4-0.1-0.7-0.4-1
		s-0.6-0.4-1-0.4c-0.4,0-0.7,0.1-1,0.3c-0.2,0.2-0.4,0.4-0.4,0.8h-1.7l0,0c0-0.6,0.2-1.2,0.8-1.7c0.6-0.5,1.4-0.7,2.3-0.7
		c0.9,0,1.7,0.2,2.2,0.7s0.8,1.1,0.8,2v3.5c0,0.3,0,0.6,0.1,0.9c0,0.3,0.1,0.6,0.2,0.9H214.3z M212.1,31.2c0.4,0,0.9-0.1,1.2-0.3
		s0.6-0.5,0.7-0.8v-1.2h-1.4c-0.5,0-0.9,0.1-1.2,0.4c-0.3,0.3-0.4,0.6-0.4,0.9c0,0.3,0.1,0.5,0.3,0.7
		C211.4,31.1,211.7,31.2,212.1,31.2z"/>
	<path class="st1" d="M219.5,32.5h-1.8V21.1h1.8V32.5z"/>
	<path class="st1" d="M223.8,22.6v1.9h1.4v1.3h-1.4v4.4c0,0.3,0.1,0.6,0.2,0.7c0.1,0.1,0.3,0.2,0.6,0.2c0.1,0,0.2,0,0.3,0
		c0.1,0,0.2,0,0.3-0.1l0.2,1.3c-0.2,0.1-0.3,0.1-0.5,0.2c-0.2,0-0.4,0.1-0.7,0.1c-0.7,0-1.2-0.2-1.5-0.6c-0.4-0.4-0.6-1-0.6-1.8
		v-4.4h-1.2v-1.3h1.2v-1.9H223.8z"/>
	<path class="st1" d="M228.5,25.6c0.3-0.4,0.6-0.7,1-0.9s0.8-0.3,1.3-0.3c0.8,0,1.5,0.3,2,0.8c0.5,0.5,0.7,1.3,0.7,2.5v4.8h-1.8
		v-4.8c0-0.6-0.1-1.1-0.4-1.4s-0.6-0.4-1.1-0.4c-0.3,0-0.7,0.1-0.9,0.2c-0.3,0.1-0.5,0.3-0.7,0.6v5.8h-1.8V21.1h1.8V25.6z"/>
</g>
<rect x="24" y="32" class="st2" width="20" height="4"/>
</svg>
