<?xml version="1.0" encoding="utf-8"?>
<!-- Generator: Adobe Illustrator 21.0.2, SVG Export Plug-In . SVG Version: 6.00 Build 0)  -->
<svg version="1.1" id="Layer_1" xmlns="http://www.w3.org/2000/svg" xmlns:xlink="http://www.w3.org/1999/xlink" x="0px" y="0px"
	 viewBox="0 0 1118 106" style="enable-background:new 0 0 1118 106;" xml:space="preserve">
<style type="text/css">
	.st0{fill:none;stroke:#000000;stroke-width:2;stroke-miterlimit:10;}
</style>
<path class="st0" d="M439.1,52.7c0,0,9.3-11.7,23.7,0c0,0,8.5,7,17.3,3.9c2-0.7,4-1.9,6-3.9"/>
<path class="st0" d="M486.1,52.7c0,0,9.3-11.7,23.7,0c0,0,8.5,7,17.3,3.9c2-0.7,4-1.9,6-3.9"/>
<path class="st0" d="M345.1,52.7c0,0,9.3-11.7,23.7,0c0,0,8.5,7,17.3,3.9c2-0.7,4-1.9,6-3.9"/>
<path class="st0" d="M392.1,52.7c0,0,9.3-11.7,23.7,0c0,0,8.5,7,17.3,3.9c2-0.7,4-1.9,6-3.9"/>
<path class="st0" d="M627.1,52.7c0,0,9.3-11.7,23.7,0c0,0,8.5,7,17.3,3.9c2-0.7,4-1.9,6-3.9"/>
<path class="st0" d="M674.1,52.7c0,0,9.3-11.7,23.7,0c0,0,8.5,7,17.3,3.9c2-0.7,4-1.9,6-3.9"/>
<path class="st0" d="M533.1,52.7c0,0,9.3-11.7,23.7,0c0,0,8.5,7,17.3,3.9c2-0.7,4-1.9,6-3.9"/>
<path class="st0" d="M580.1,52.7c0,0,9.3-11.7,23.7,0c0,0,8.5,7,17.3,3.9c2-0.7,4-1.9,6-3.9"/>
<path class="st0" d="M110.1,52.7c0,0,9.3-11.7,23.7,0c0,0,8.5,7,17.3,3.9c2-0.7,4-1.9,6-3.9"/>
<path class="st0" d="M157.1,52.7c0,0,9.3-11.7,23.7,0c0,0,8.5,7,17.3,3.9c2-0.7,4-1.9,6-3.9"/>
<path class="st0" d="M16.1,52.7c0,0,9.3-11.7,23.7,0c0,0,8.5,7,17.3,3.9c2-0.7,4-1.9,6-3.9"/>
<path class="st0" d="M63.1,52.7c0,0,9.3-11.7,23.7,0c0,0,8.5,7,17.3,3.9c2-0.7,4-1.9,6-3.9"/>
<path class="st0" d="M298.1,52.7c0,0,9.3-11.7,23.7,0c0,0,8.5,7,17.3,3.9c2-0.7,4-1.9,6-3.9"/>
<path class="st0" d="M204.1,52.7c0,0,9.3-11.7,23.7,0c0,0,8.5,7,17.3,3.9c2-0.7,4-1.9,6-3.9"/>
<path class="st0" d="M251.1,52.7c0,0,9.3-11.7,23.7,0c0,0,8.5,7,17.3,3.9c2-0.7,4-1.9,6-3.9"/>
<path class="st0" d="M814.1,53.7c0,0,9.3-11.7,23.7,0c0,0,8.5,7,17.3,3.9c2-0.7,4-1.9,6-3.9"/>
<path class="st0" d="M861.1,53.7c0,0,9.3-11.7,23.7,0c0,0,8.5,7,17.3,3.9c2-0.7,4-1.9,6-3.9"/>
<path class="st0" d="M720.1,53.7c0,0,9.3-11.7,23.7,0c0,0,8.5,7,17.3,3.9c2-0.7,4-1.9,6-3.9"/>
<path class="st0" d="M767.1,53.7c0,0,9.3-11.7,23.7,0c0,0,8.5,7,17.3,3.9c2-0.7,4-1.9,6-3.9"/>
<path class="st0" d="M1002.1,53.7c0,0,9.3-11.7,23.7,0c0,0,8.5,7,17.3,3.9c2-0.7,4-1.9,6-3.9"/>
<path class="st0" d="M1049.1,53.7c0,0,9.3-11.7,23.7,0c0,0,8.5,7,17.3,3.9c2-0.7,4-1.9,6-3.9"/>
<path class="st0" d="M908.1,53.7c0,0,9.3-11.7,23.7,0c0,0,8.5,7,17.3,3.9c2-0.7,4-1.9,6-3.9"/>
<path class="st0" d="M955.1,53.7c0,0,9.3-11.7,23.7,0c0,0,8.5,7,17.3,3.9c2-0.7,4-1.9,6-3.9"/>
</svg>
