<?xml version="1.0" encoding="utf-8"?>
<!-- Generator: Adobe Illustrator 21.0.2, SVG Export Plug-In . SVG Version: 6.00 Build 0)  -->
<svg version="1.1" id="Layer_1" xmlns="http://www.w3.org/2000/svg" xmlns:xlink="http://www.w3.org/1999/xlink" x="0px" y="0px"
	 viewBox="0 0 310 310" style="enable-background:new 0 0 310 310;" xml:space="preserve">
<style type="text/css">
	.st0{fill:#2E3563;}
</style>
<path class="st0" d="M273.2,37.4H36.8C16.5,37.4,0,53.2,0,72.7v164.8c0,19.5,16.5,35.3,36.8,35.3h236.4c20.3,0,36.8-15.9,36.8-35.3
	V72.7C310,53.2,293.5,37.4,273.2,37.4z M273.2,241.6H36.8c-3,0-5.6-1.9-5.6-4.1v-143l106.9,90.3c2.2,1.9,5,2.9,7.8,2.9l18.1,0
	c2.9,0,5.7-1,7.9-2.9l106.9-90.3v143C278.8,239.7,276.2,241.6,273.2,241.6z M155,156.7L51,68.6h208L155,156.7z"/>
</svg>
