<svg id="Layer_1" xmlns="http://www.w3.org/2000/svg" viewBox="0 0 1118 106"><style>.st0{fill:none;stroke:#000;stroke-width:2;stroke-miterlimit:10}</style><path class="st0" d="M439.1 52.7s9.3-11.7 23.7 0c0 0 8.5 7 17.3 3.9 2-.7 4-1.9 6-3.9M486.1 52.7s9.3-11.7 23.7 0c0 0 8.5 7 17.3 3.9 2-.7 4-1.9 6-3.9M345.1 52.7s9.3-11.7 23.7 0c0 0 8.5 7 17.3 3.9 2-.7 4-1.9 6-3.9M392.1 52.7s9.3-11.7 23.7 0c0 0 8.5 7 17.3 3.9 2-.7 4-1.9 6-3.9M627.1 52.7s9.3-11.7 23.7 0c0 0 8.5 7 17.3 3.9 2-.7 4-1.9 6-3.9M674.1 52.7s9.3-11.7 23.7 0c0 0 8.5 7 17.3 3.9 2-.7 4-1.9 6-3.9M533.1 52.7s9.3-11.7 23.7 0c0 0 8.5 7 17.3 3.9 2-.7 4-1.9 6-3.9M580.1 52.7s9.3-11.7 23.7 0c0 0 8.5 7 17.3 3.9 2-.7 4-1.9 6-3.9M110.1 52.7s9.3-11.7 23.7 0c0 0 8.5 7 17.3 3.9 2-.7 4-1.9 6-3.9M157.1 52.7s9.3-11.7 23.7 0c0 0 8.5 7 17.3 3.9 2-.7 4-1.9 6-3.9M16.1 52.7s9.3-11.7 23.7 0c0 0 8.5 7 17.3 3.9 2-.7 4-1.9 6-3.9M63.1 52.7s9.3-11.7 23.7 0c0 0 8.5 7 17.3 3.9 2-.7 4-1.9 6-3.9M298.1 52.7s9.3-11.7 23.7 0c0 0 8.5 7 17.3 3.9 2-.7 4-1.9 6-3.9M204.1 52.7s9.3-11.7 23.7 0c0 0 8.5 7 17.3 3.9 2-.7 4-1.9 6-3.9M251.1 52.7s9.3-11.7 23.7 0c0 0 8.5 7 17.3 3.9 2-.7 4-1.9 6-3.9M814.1 53.7s9.3-11.7 23.7 0c0 0 8.5 7 17.3 3.9 2-.7 4-1.9 6-3.9M861.1 53.7s9.3-11.7 23.7 0c0 0 8.5 7 17.3 3.9 2-.7 4-1.9 6-3.9"/><path class="st0" d="M720.1 53.7s9.3-11.7 23.7 0c0 0 8.5 7 17.3 3.9 2-.7 4-1.9 6-3.9M767.1 53.7s9.3-11.7 23.7 0c0 0 8.5 7 17.3 3.9 2-.7 4-1.9 6-3.9M1002.1 53.7s9.3-11.7 23.7 0c0 0 8.5 7 17.3 3.9 2-.7 4-1.9 6-3.9M1049.1 53.7s9.3-11.7 23.7 0c0 0 8.5 7 17.3 3.9 2-.7 4-1.9 6-3.9M908.1 53.7s9.3-11.7 23.7 0c0 0 8.5 7 17.3 3.9 2-.7 4-1.9 6-3.9M955.1 53.7s9.3-11.7 23.7 0c0 0 8.5 7 17.3 3.9 2-.7 4-1.9 6-3.9"/></svg>