<?xml version="1.0" encoding="utf-8"?>
<!-- Generator: Adobe Illustrator 21.0.2, SVG Export Plug-In . SVG Version: 6.00 Build 0)  -->
<svg version="1.1" id="Layer_1" xmlns="http://www.w3.org/2000/svg" xmlns:xlink="http://www.w3.org/1999/xlink" x="0px" y="0px"
	 viewBox="0 0 310 310" style="enable-background:new 0 0 310 310;" xml:space="preserve">
<style type="text/css">
	.st0{fill:#2E3563;}
</style>
<g>
	<g id="Link">
		<g>
			<path class="st0" d="M177.4,109.1c-3.4-2.2-7.3-2.8-11-2c-3.6,0.8-6.9,3-9.1,6.3c-2.2,3.4-2.8,7.3-2,10.9c0.8,3.6,3,7,6.3,9.1
				c14,9,22.4,24.2,22.4,40.8c0,12.9-5,25.1-14.2,34.2l-58.1,58.1c-9.2,9.2-21.3,14.2-34.3,14.2c-26.7,0-48.4-21.7-48.4-48.4
				c0-12.9,5-25.1,14.2-34.2l27.6-27.6c2.9-2.9,4.3-6.7,4.3-10.5c-0.1-3.6-1.5-7.2-4.3-10c-2.8-2.8-6.6-4.3-10.3-4.3
				c-3.7,0-7.4,1.4-10.3,4.3l-27.6,27.6C8.1,192.3,0,211.8,0,232.5C0,275.2,34.8,310,77.5,310c20.7,0,40.2-8.1,54.8-22.7l58.1-58.1
				c14.6-14.6,22.7-34.1,22.7-54.8C213.1,147.9,199.8,123.5,177.4,109.1z M232.5,0c-20.7,0-40.2,8.1-54.8,22.7l-58.1,58.1
				c-14.6,14.6-22.7,34.1-22.7,54.8c0,26.5,13.4,50.9,35.7,65.2c3.4,2.2,7.3,2.8,11,1.9c3.6-0.8,6.9-3,9.1-6.3c2.2-3.4,2.8-7.3,2-11
				c-0.8-3.6-3-7-6.3-9.1c-14-9-22.4-24.2-22.4-40.8c0-12.9,5-25.1,14.2-34.2l58.1-58.1c9.2-9.1,21.3-14.2,34.3-14.2
				c26.7,0,48.4,21.7,48.4,48.4c0,12.9-5,25.1-14.2,34.2l-27.6,27.6c-2.9,2.9-4.3,6.7-4.3,10.5c0.1,3.6,1.5,7.2,4.3,10
				c2.8,2.8,6.6,4.3,10.3,4.3c3.7,0,7.4-1.4,10.3-4.3l27.6-27.6c14.6-14.6,22.7-34.1,22.7-54.8C310,34.8,275.2,0,232.5,0z"/>
		</g>
	</g>
</g>
</svg>
