<?xml version="1.0" encoding="utf-8"?>
<!-- Generator: Adobe Illustrator 21.0.2, SVG Export Plug-In . SVG Version: 6.00 Build 0)  -->
<svg version="1.1" id="Layer_1" xmlns="http://www.w3.org/2000/svg" xmlns:xlink="http://www.w3.org/1999/xlink" x="0px" y="0px"
	 viewBox="0 0 150 150" style="fill:#f1dccd;enable-background:new 0 0 150 150;" xml:space="preserve">
<path d="M36.1,61.4c-4.1,6.2-5.4,12.5-3.9,18.9c0.6,2.9,1.6,5.1,2.9,6.7c1.3,1.6,2.5,2.7,3.6,3.4c1.4-1.4,3-2.5,4.9-3.3
	c1.9-0.8,3.8-1.4,5.8-1.8c2-0.4,4.1-0.5,6.4-0.3c2.3,0.2,4.5,0.9,6.6,2c2.1,1.1,4.1,2.7,5.8,4.9c1.8,2.1,3,4.9,3.8,8.3
	c0.7,3.4,0.8,6.4,0,9.1c-0.7,2.7-1.9,5-3.5,6.9c-1.6,1.9-3.6,3.5-5.8,4.8c-2.2,1.2-4.5,2.1-6.8,2.6c-6.8,1.5-13.2,0-19.2-4.5
	c-6-4.5-10.2-11.8-12.4-21.9c-1.5-6.9-1.6-13.4-0.2-19.3c1.4-5.9,3.5-11.3,6.4-16.3c2.8-4.9,6.1-9.4,9.9-13.5
	C44,44,47.5,40.3,50.7,37l2.6,3.1C45.9,48.1,40.2,55.2,36.1,61.4z M91.5,49.2c-4.1,6.2-5.4,12.5-3.9,18.9c0.6,2.9,1.6,5.1,2.9,6.7
	c1.3,1.6,2.5,2.7,3.6,3.4c1.4-1.4,3-2.5,4.9-3.3c1.9-0.8,3.8-1.4,5.8-1.8c2-0.4,4.1-0.5,6.4-0.3c2.3,0.2,4.5,0.9,6.6,2
	c2.1,1.1,4.1,2.7,5.8,4.9c1.8,2.1,3,4.9,3.8,8.3c0.7,3.4,0.8,6.4,0,9.1c-0.7,2.7-1.9,5-3.5,6.9c-1.6,1.9-3.6,3.5-5.8,4.8
	c-2.2,1.2-4.5,2.1-6.8,2.6c-6.8,1.5-13.2,0-19.2-4.5c-6-4.5-10.2-11.8-12.4-21.9c-1.5-6.9-1.6-13.4-0.2-19.3
	c1.4-5.9,3.5-11.3,6.4-16.3c2.8-4.9,6.1-9.4,9.9-13.5c3.8-4.1,7.2-7.8,10.4-11.1l2.6,3.1C101.2,35.9,95.5,43,91.5,49.2z"/>
</svg>
