<?xml version="1.0" encoding="utf-8"?>
<!-- Generator: Adobe Illustrator 21.0.2, SVG Export Plug-In . SVG Version: 6.00 Build 0)  -->
<svg version="1.1" id="Layer_1" xmlns="http://www.w3.org/2000/svg" xmlns:xlink="http://www.w3.org/1999/xlink" x="0px" y="0px"
	 viewBox="0 0 150 150" style="fill:#f1dccd;enable-background:new 0 0 150 150;" xml:space="preserve">
<path d="M59.5,100.7c4-6.2,5.4-12.5,4-18.9c-0.6-2.8-1.6-5.1-2.9-6.7c-1.3-1.6-2.5-2.7-3.6-3.4c-1.4,1.4-3,2.5-4.9,3.3
	c-1.9,0.8-3.8,1.4-5.8,1.8c-1.8,0.4-3.9,0.5-6.2,0.3c-2.4-0.2-4.6-0.9-6.8-2c-2.1-1.1-4.1-2.7-5.8-4.9c-1.8-2.1-3-4.9-3.8-8.3
	c-0.7-3.4-0.8-6.4,0-9.1c0.7-2.7,1.9-5,3.5-6.9c1.6-1.9,3.6-3.5,5.8-4.8c2.2-1.2,4.5-2.1,6.8-2.6c6.8-1.5,13.2,0,19.2,4.5
	c6,4.5,10.2,11.8,12.4,21.9c1.5,6.9,1.6,13.4,0.3,19.3c-1.3,5.9-3.4,11.4-6.3,16.4c-2.9,5-6.2,9.6-10,13.7
	c-3.8,4.1-7.3,7.7-10.5,10.9l-2.6-3.1C49.7,114,55.4,106.9,59.5,100.7z M114.8,88.5c4-6.2,5.4-12.5,4-18.9c-0.6-2.8-1.6-5.1-2.9-6.7
	c-1.3-1.6-2.5-2.7-3.6-3.4c-1.4,1.4-3,2.5-4.9,3.3c-1.9,0.8-3.8,1.4-5.8,1.8c-1.8,0.4-3.9,0.5-6.2,0.3c-2.4-0.2-4.6-0.9-6.8-2
	c-2.1-1.1-4.1-2.7-5.8-4.9c-1.8-2.1-3-4.9-3.8-8.3c-0.7-3.4-0.8-6.4,0-9.1c0.7-2.7,1.9-5,3.5-6.9c1.6-1.9,3.6-3.5,5.8-4.8
	c2.2-1.2,4.5-2.1,6.8-2.6c6.8-1.5,13.2,0,19.2,4.5c6,4.5,10.2,11.8,12.4,21.9c1.5,6.9,1.6,13.4,0.3,19.3c-1.3,5.9-3.4,11.4-6.3,16.4
	c-2.9,5-6.2,9.6-10,13.7c-3.8,4.1-7.3,7.7-10.5,10.9l-2.6-3.1C105,101.8,110.7,94.7,114.8,88.5z"/>
</svg>
